<svg xmlns:dc="http://purl.org/dc/elements/1.1/" xmlns:cc="http://creativecommons.org/ns#" xmlns:rdf="http://www.w3.org/1999/02/22-rdf-syntax-ns#" xmlns:svg="http://www.w3.org/2000/svg" xmlns="http://www.w3.org/2000/svg" viewBox="0 0 431 431">
    <path d="M2 32C2 15.4315 15.4315 2 32 2H399C415.569 2 429 15.4315 429 32V399C429 415.569 415.569 429 399 429H32C15.4315 429 2 415.569 2 399V32Z" fill="#AAAAAA" fill-opacity="0.7" stroke="#AAAAAA" stroke-width="4"></path>
    <rect x="90" y="112" width="252" height="8" fill="white" fill-opacity="0.8"></rect>
    <rect x="90" y="211" width="252" height="8" fill="white" fill-opacity="0.8"></rect>
    <rect x="90" y="310" width="252" height="8" fill="white" fill-opacity="0.8"></rect>
    <rect x="90" y="244" width="190" height="8" fill="white" fill-opacity="0.8"></rect>
    <rect x="90" y="277" width="64" height="8" fill="white" fill-opacity="0.8"></rect>
    <rect x="164" y="277" width="178" height="8" fill="white" fill-opacity="0.8"></rect>
    <rect x="90" y="145" width="129" height="8" fill="white" fill-opacity="0.8"></rect>
    <rect x="229" y="145" width="113" height="8" fill="white" fill-opacity="0.8"></rect>
    <rect x="90" y="178" width="92" height="8" fill="white" fill-opacity="0.8"></rect>
    <rect x="192" y="178" width="103" height="8" fill="white" fill-opacity="0.8"></rect>
    <rect x="305" y="178" width="37" height="8" fill="white" fill-opacity="0.8"></rect>
    <rect x="290" y="244" width="52" height="8" fill="white" fill-opacity="0.8"></rect>
</svg>